<svg width="24" height="24" viewBox="0 0 24 24" fill="none" xmlns="http://www.w3.org/2000/svg">
<path d="M13.1538 17C13.1538 17.2282 13.0862 17.4513 12.9594 17.641C12.8326 17.8308 12.6524 17.9787 12.4416 18.066C12.2307 18.1533 11.9987 18.1762 11.7749 18.1317C11.5511 18.0872 11.3455 17.9773 11.1841 17.8159C11.0227 17.6545 10.9128 17.4489 10.8683 17.2251C10.8238 17.0013 10.8467 16.7693 10.934 16.5584C11.0213 16.3476 11.1692 16.1674 11.359 16.0406C11.5487 15.9138 11.7718 15.8462 12 15.8462C12.306 15.8462 12.5995 15.9677 12.8159 16.1841C13.0323 16.4005 13.1538 16.694 13.1538 17ZM12 6.61538C9.87885 6.61538 8.15385 8.16827 8.15385 10.0769V10.4615C8.15385 10.6655 8.23489 10.8612 8.37915 11.0055C8.52341 11.1497 8.71907 11.2308 8.92308 11.2308C9.12709 11.2308 9.32275 11.1497 9.46701 11.0055C9.61127 10.8612 9.69231 10.6655 9.69231 10.4615V10.0769C9.69231 9.01923 10.7279 8.15384 12 8.15384C13.2721 8.15384 14.3077 9.01923 14.3077 10.0769C14.3077 11.1346 13.2721 12 12 12C11.796 12 11.6003 12.081 11.4561 12.2253C11.3118 12.3696 11.2308 12.5652 11.2308 12.7692V13.5385C11.2308 13.7425 11.3118 13.9381 11.4561 14.0824C11.6003 14.2266 11.796 14.3077 12 14.3077C12.204 14.3077 12.3997 14.2266 12.5439 14.0824C12.6882 13.9381 12.7692 13.7425 12.7692 13.5385V13.4692C14.5231 13.1471 15.8462 11.7481 15.8462 10.0769C15.8462 8.16827 14.1212 6.61538 12 6.61538ZM22 12C22 13.9778 21.4135 15.9112 20.3147 17.5557C19.2159 19.2002 17.6541 20.4819 15.8268 21.2388C13.9996 21.9957 11.9889 22.1937 10.0491 21.8078C8.10929 21.422 6.32746 20.4696 4.92894 19.0711C3.53041 17.6725 2.578 15.8907 2.19215 13.9509C1.8063 12.0111 2.00433 10.0004 2.76121 8.17316C3.51809 6.3459 4.79981 4.78412 6.4443 3.6853C8.08879 2.58649 10.0222 2 12 2C14.6513 2.0028 17.1932 3.05727 19.068 4.93202C20.9427 6.80678 21.9972 9.34869 22 12ZM20.4615 12C20.4615 10.3265 19.9653 8.69051 19.0355 7.29902C18.1057 5.90753 16.7842 4.82299 15.2381 4.18256C13.6919 3.54212 11.9906 3.37456 10.3492 3.70105C8.70786 4.02754 7.20016 4.83342 6.01679 6.01679C4.83343 7.20016 4.02754 8.70786 3.70105 10.3492C3.37456 11.9906 3.54213 13.6919 4.18256 15.2381C4.823 16.7842 5.90753 18.1057 7.29902 19.0355C8.69052 19.9653 10.3265 20.4615 12 20.4615C14.2434 20.459 16.3941 19.5667 17.9804 17.9804C19.5667 16.3941 20.459 14.2434 20.4615 12Z" fill="#199388"/>
</svg>
